<svg width="120" height="40" viewBox="0 0 120 40" fill="none" xmlns="http://www.w3.org/2000/svg">
<g clip-path="url(#clip0_22_46)">
<path d="M110.135 7.92969e-06H9.53468C9.16798 7.92969e-06 8.80568 7.92975e-06 8.43995 0.00200793C8.1338 0.00400793 7.83009 0.00981793 7.521 0.0147079C6.84951 0.0226097 6.17961 0.0816842 5.5171 0.191418C4.85552 0.303541 4.21467 0.514924 3.61622 0.818418C3.0185 1.12448 2.47235 1.52218 1.99757 1.99708C1.5203 2.47064 1.12246 3.01802 0.81935 3.61817C0.5154 4.21712 0.304641 4.85895 0.19435 5.52149C0.0830109 6.18319 0.0230984 6.85253 0.01515 7.52349C0.00587 7.83009 0.00489 8.13771 0 8.44435V31.5586C0.00489 31.8691 0.00587 32.1699 0.01515 32.4805C0.0231008 33.1514 0.0830134 33.8207 0.19435 34.4824C0.304336 35.1453 0.515108 35.7875 0.81935 36.3867C1.12233 36.9849 1.52022 37.5301 1.99757 38.001C2.47054 38.478 3.01705 38.876 3.61622 39.1797C4.21467 39.484 4.85545 39.6967 5.5171 39.8105C6.17972 39.9194 6.84956 39.9785 7.521 39.9873C7.83009 39.9941 8.1338 39.998 8.43995 39.998C8.80567 40 9.168 40 9.53468 40H110.135C110.494 40 110.859 40 111.219 39.998C111.523 39.998 111.836 39.9941 112.141 39.9873C112.811 39.9789 113.479 39.9198 114.141 39.8105C114.804 39.6959 115.448 39.4833 116.049 39.1797C116.647 38.8758 117.193 38.4779 117.666 38.001C118.142 37.5282 118.541 36.9835 118.848 36.3867C119.15 35.7871 119.358 35.145 119.467 34.4824C119.578 33.8206 119.64 33.1515 119.652 32.4805C119.656 32.1699 119.656 31.8691 119.656 31.5586C119.664 31.1953 119.664 30.834 119.664 30.4648V9.53614C119.664 9.16993 119.664 8.80665 119.656 8.44435C119.656 8.13771 119.656 7.83009 119.652 7.52345C119.64 6.85243 119.578 6.18324 119.467 5.52145C119.358 4.85929 119.149 4.21751 118.848 3.61813C118.23 2.4152 117.252 1.43603 116.049 0.818328C115.448 0.515575 114.804 0.304248 114.141 0.191328C113.48 0.0811107 112.811 0.0220157 112.141 0.0145679C111.836 0.00968793 111.523 0.00382793 111.219 0.00187793C110.859 -0.00012207 110.494 -0.00012207 110.135 -0.00012207V7.92969e-06Z" fill="black"/>
<path d="M8.44487 39.125C8.14019 39.125 7.84287 39.1211 7.54058 39.1143C6.91436 39.1061 6.2896 39.0516 5.67144 38.9512C5.09503 38.8519 4.53664 38.6673 4.0147 38.4033C3.49754 38.1415 3.02585 37.7983 2.6177 37.3867C2.20364 36.98 1.85891 36.5082 1.59719 35.9902C1.33258 35.4688 1.14945 34.9099 1.05419 34.333C0.951311 33.7131 0.895651 33.0863 0.887687 32.458C0.881347 32.2471 0.873047 31.5449 0.873047 31.5449V8.44434C0.873047 8.44434 0.881887 7.75293 0.887737 7.5498C0.895363 6.92248 0.950699 6.29665 1.05327 5.67773C1.14871 5.09925 1.33197 4.53875 1.59673 4.01563C1.85749 3.49794 2.2003 3.02586 2.61187 2.61768C3.02297 2.20562 3.49617 1.8606 4.01421 1.59521C4.53495 1.33209 5.09228 1.14873 5.66753 1.05127C6.28772 0.949836 6.91465 0.894996 7.54304 0.88721L8.44536 0.875H111.214L112.127 0.8877C112.75 0.895099 113.371 0.94945 113.985 1.05029C114.566 1.14898 115.13 1.33362 115.656 1.59814C116.694 2.13299 117.539 2.97916 118.071 4.01807C118.332 4.53758 118.512 5.09351 118.607 5.66699C118.71 6.29099 118.768 6.92174 118.78 7.5542C118.783 7.8374 118.783 8.1416 118.783 8.44434C118.791 8.81934 118.791 9.17627 118.791 9.53613V30.4648C118.791 30.8281 118.791 31.1826 118.783 31.54C118.783 31.8652 118.783 32.1631 118.779 32.4697C118.768 33.0909 118.711 33.7104 118.608 34.3232C118.515 34.9043 118.333 35.4675 118.068 35.9932C117.805 36.5056 117.462 36.9733 117.053 37.3789C116.644 37.7927 116.172 38.1379 115.653 38.4014C115.128 38.6674 114.566 38.8527 113.985 38.9512C113.367 39.0522 112.742 39.1067 112.116 39.1143C111.823 39.1211 111.517 39.125 111.219 39.125L110.135 39.127L8.44487 39.125Z" fill="white"/>
<path d="M24.9967 19.8893C25.0078 19.0214 25.2384 18.1703 25.6669 17.4154C26.0953 16.6605 26.7078 16.0262 27.4472 15.5716C26.9775 14.9007 26.3578 14.3486 25.6373 13.9591C24.9168 13.5696 24.1155 13.3535 23.2969 13.3279C21.5506 13.1446 19.8577 14.3728 18.9679 14.3728C18.0608 14.3728 16.6907 13.3461 15.2154 13.3764C14.2611 13.4072 13.3311 13.6847 12.5159 14.1819C11.7008 14.679 11.0283 15.3788 10.564 16.2131C8.55291 19.6951 10.053 24.8125 11.9795 27.6271C12.9434 29.0053 14.0699 30.5448 15.5439 30.4903C16.9863 30.4304 17.525 29.5705 19.2661 29.5705C20.991 29.5705 21.4965 30.4903 23.0004 30.4555C24.5481 30.4304 25.5233 29.0712 26.4534 27.6799C27.1459 26.6979 27.6788 25.6125 28.0324 24.464C27.1332 24.0837 26.3658 23.4471 25.826 22.6336C25.2861 21.8201 24.9977 20.8657 24.9967 19.8893Z" fill="black"/>
<path d="M22.1561 11.4768C23 10.4637 23.4158 9.1616 23.3151 7.84692C22.0258 7.98234 20.8349 8.59854 19.9795 9.57274C19.5614 10.0487 19.2411 10.6023 19.037 11.2021C18.8329 11.8019 18.7491 12.436 18.7902 13.0682C19.4351 13.0749 20.0731 12.9351 20.6561 12.6594C21.2391 12.3838 21.752 11.9794 22.1561 11.4768V11.4768Z" fill="black"/>
<path d="M44.049 25.2734H42.4936C42.4652 25.0722 42.4072 24.8935 42.3196 24.7372C42.232 24.5786 42.1196 24.4437 41.9822 24.3324C41.8449 24.2211 41.6863 24.1359 41.5064 24.0767C41.3288 24.0175 41.1359 23.9879 40.9276 23.9879C40.5511 23.9879 40.2232 24.0814 39.9439 24.2685C39.6645 24.4531 39.4479 24.723 39.294 25.0781C39.1402 25.4309 39.0632 25.8594 39.0632 26.3636C39.0632 26.8821 39.1402 27.3177 39.294 27.6705C39.4503 28.0232 39.6681 28.2895 39.9474 28.4695C40.2268 28.6494 40.55 28.7393 40.9169 28.7393C41.1229 28.7393 41.3134 28.7121 41.4886 28.6577C41.6662 28.6032 41.8236 28.5239 41.9609 28.4197C42.0982 28.3132 42.2119 28.1842 42.3018 28.0327C42.3942 27.8812 42.4581 27.7083 42.4936 27.5142L44.049 27.5213C44.0088 27.8551 43.9081 28.1771 43.7472 28.4872C43.5885 28.795 43.3743 29.0708 43.1044 29.3146C42.8369 29.5561 42.5173 29.7479 42.1456 29.8899C41.7763 30.0296 41.3584 30.0994 40.892 30.0994C40.2434 30.0994 39.6634 29.9527 39.152 29.6591C38.643 29.3655 38.2405 28.9406 37.9446 28.3842C37.651 27.8279 37.5043 27.1544 37.5043 26.3636C37.5043 25.5705 37.6534 24.8958 37.9517 24.3395C38.25 23.7831 38.6548 23.3594 39.1662 23.0682C39.6776 22.7746 40.2528 22.6278 40.892 22.6278C41.3134 22.6278 41.7041 22.687 42.0639 22.8054C42.4261 22.9238 42.7469 23.0966 43.0263 23.3239C43.3056 23.5488 43.5329 23.8246 43.7081 24.1513C43.8857 24.478 43.9993 24.852 44.049 25.2734ZM47.5877 30.1065C47.0361 30.1065 46.5591 29.9893 46.1566 29.755C45.7565 29.5182 45.4476 29.1892 45.2298 28.7678C45.012 28.344 44.9031 27.8527 44.9031 27.294C44.9031 26.7306 45.012 26.2382 45.2298 25.8168C45.4476 25.393 45.7565 25.0639 46.1566 24.8295C46.5591 24.5928 47.0361 24.4744 47.5877 24.4744C48.1393 24.4744 48.6152 24.5928 49.0153 24.8295C49.4177 25.0639 49.7279 25.393 49.9457 25.8168C50.1635 26.2382 50.2724 26.7306 50.2724 27.294C50.2724 27.8527 50.1635 28.344 49.9457 28.7678C49.7279 29.1892 49.4177 29.5182 49.0153 29.755C48.6152 29.9893 48.1393 30.1065 47.5877 30.1065ZM47.5948 28.9347C47.8458 28.9347 48.0553 28.8636 48.2234 28.7216C48.3915 28.5772 48.5181 28.3807 48.6033 28.1321C48.6909 27.8835 48.7347 27.6006 48.7347 27.2834C48.7347 26.9661 48.6909 26.6832 48.6033 26.4347C48.5181 26.1861 48.3915 25.9896 48.2234 25.8452C48.0553 25.7008 47.8458 25.6286 47.5948 25.6286C47.3415 25.6286 47.1284 25.7008 46.9556 25.8452C46.7852 25.9896 46.6561 26.1861 46.5685 26.4347C46.4833 26.6832 46.4407 26.9661 46.4407 27.2834C46.4407 27.6006 46.4833 27.8835 46.5685 28.1321C46.6561 28.3807 46.7852 28.5772 46.9556 28.7216C47.1284 28.8636 47.3415 28.9347 47.5948 28.9347ZM51.256 30V24.5455H52.6978V25.5078H52.7617C52.8754 25.1882 53.0647 24.9361 53.3299 24.7514C53.5951 24.5668 53.9123 24.4744 54.2816 24.4744C54.6557 24.4744 54.9741 24.5679 55.2369 24.755C55.4996 24.9396 55.6748 25.1906 55.7624 25.5078H55.8192C55.9305 25.1953 56.1317 24.9455 56.4229 24.7585C56.7165 24.5691 57.0633 24.4744 57.4634 24.4744C57.9724 24.4744 58.3855 24.6366 58.7028 24.9609C59.0224 25.2829 59.1822 25.7398 59.1822 26.3317V30H57.6729V26.63C57.6729 26.3269 57.5924 26.0997 57.4315 25.9482C57.2705 25.7966 57.0692 25.7209 56.8278 25.7209C56.5531 25.7209 56.3389 25.8085 56.185 25.9837C56.0311 26.1565 55.9542 26.3849 55.9542 26.669V30H54.4876V26.598C54.4876 26.3305 54.4106 26.1174 54.2567 25.9588C54.1052 25.8002 53.9052 25.7209 53.6566 25.7209C53.4885 25.7209 53.337 25.7635 53.2021 25.8487C53.0695 25.9316 52.9641 26.0488 52.886 26.2003C52.8079 26.3494 52.7688 26.5246 52.7688 26.7259V30H51.256ZM60.3771 30V24.5455H61.8899V30H60.3771ZM61.1371 23.8423C60.9122 23.8423 60.7192 23.7678 60.5582 23.6186C60.3996 23.4671 60.3203 23.286 60.3203 23.0753C60.3203 22.867 60.3996 22.6882 60.5582 22.5391C60.7192 22.3875 60.9122 22.3118 61.1371 22.3118C61.362 22.3118 61.5537 22.3875 61.7124 22.5391C61.8733 22.6882 61.9538 22.867 61.9538 23.0753C61.9538 23.286 61.8733 23.4671 61.7124 23.6186C61.5537 23.7678 61.362 23.8423 61.1371 23.8423ZM64.6145 26.8466V30H63.1017V24.5455H64.5435V25.5078H64.6074C64.7282 25.1906 64.9306 24.9396 65.2147 24.755C65.4988 24.5679 65.8432 24.4744 66.248 24.4744C66.6268 24.4744 66.9571 24.5573 67.2388 24.723C67.5205 24.8887 67.7395 25.1255 67.8958 25.4332C68.052 25.7386 68.1301 26.1032 68.1301 26.527V30H66.6174V26.7969C66.6197 26.4631 66.5345 26.2027 66.3617 26.0156C66.1889 25.8262 65.9509 25.7315 65.6479 25.7315C65.4443 25.7315 65.2644 25.7753 65.1081 25.8629C64.9542 25.9505 64.8335 26.0784 64.7459 26.2464C64.6607 26.4122 64.6169 26.6122 64.6145 26.8466ZM71.7798 32.1591C71.2898 32.1591 70.8696 32.0916 70.5192 31.9567C70.1712 31.8241 69.8942 31.643 69.6882 31.4134C69.4822 31.1837 69.3485 30.9257 69.2869 30.6392L70.6861 30.451C70.7287 30.5599 70.7962 30.6617 70.8885 30.7564C70.9808 30.8511 71.1027 30.9268 71.2543 30.9837C71.4081 31.0429 71.5952 31.0724 71.8153 31.0724C72.1444 31.0724 72.4155 30.992 72.6286 30.831C72.844 30.6723 72.9517 30.406 72.9517 30.032V29.0341H72.8878C72.8215 29.1856 72.7221 29.3288 72.5895 29.4638C72.4569 29.5987 72.2865 29.7088 72.0781 29.794C71.8698 29.8793 71.6212 29.9219 71.3324 29.9219C70.9228 29.9219 70.55 29.8272 70.2138 29.6378C69.88 29.446 69.6136 29.1536 69.4148 28.7607C69.2183 28.3653 69.12 27.8658 69.12 27.2621C69.12 26.6442 69.2206 26.1281 69.4219 25.7138C69.6231 25.2995 69.8906 24.9893 70.2244 24.7834C70.5606 24.5774 70.9287 24.4744 71.3288 24.4744C71.6342 24.4744 71.8899 24.5265 72.0959 24.6307C72.3018 24.7325 72.4676 24.8603 72.593 25.0142C72.7209 25.1657 72.8191 25.3149 72.8878 25.4616H72.9446V24.5455H74.4467V30.0533C74.4467 30.5173 74.3331 30.9055 74.1058 31.218C73.8786 31.5305 73.5637 31.7649 73.1612 31.9212C72.7611 32.0798 72.3007 32.1591 71.7798 32.1591ZM71.8118 28.7855C72.0556 28.7855 72.2616 28.7251 72.4297 28.6044C72.6001 28.4813 72.7304 28.3061 72.8203 28.0788C72.9126 27.8492 72.9588 27.5746 72.9588 27.255C72.9588 26.9354 72.9138 26.6584 72.8239 26.424C72.7339 26.1873 72.6037 26.0038 72.4332 25.8736C72.2628 25.7434 72.0556 25.6783 71.8118 25.6783C71.5632 25.6783 71.3537 25.7457 71.1832 25.8807C71.0128 26.0133 70.8838 26.1979 70.7962 26.4347C70.7086 26.6714 70.6648 26.9448 70.6648 27.255C70.6648 27.5698 70.7086 27.8421 70.7962 28.0717C70.8861 28.299 71.0152 28.4754 71.1832 28.6009C71.3537 28.724 71.5632 28.7855 71.8118 28.7855ZM81.9387 24.8189C81.9103 24.5324 81.7884 24.3099 81.573 24.1513C81.3575 23.9927 81.0652 23.9134 80.6958 23.9134C80.4449 23.9134 80.233 23.9489 80.0602 24.0199C79.8874 24.0885 79.7548 24.1844 79.6625 24.3075C79.5725 24.4306 79.5275 24.5703 79.5275 24.7266C79.5228 24.8568 79.55 24.9704 79.6092 25.0675C79.6708 25.1645 79.7548 25.2486 79.8613 25.3196C79.9679 25.3883 80.091 25.4486 80.2306 25.5007C80.3703 25.5504 80.5195 25.593 80.6781 25.6286L81.3315 25.7848C81.6487 25.8558 81.9399 25.9505 82.2051 26.0689C82.4702 26.1873 82.6999 26.3329 82.894 26.5057C83.0881 26.6785 83.2385 26.8821 83.345 27.1165C83.4539 27.3509 83.5095 27.6196 83.5119 27.9226C83.5095 28.3677 83.3959 28.7536 83.171 29.0803C82.9484 29.4046 82.6265 29.6567 82.2051 29.8366C81.786 30.0142 81.2806 30.103 80.6887 30.103C80.1016 30.103 79.5903 30.013 79.1547 29.8331C78.7214 29.6532 78.3829 29.3868 78.139 29.0341C77.8975 28.679 77.7709 28.2398 77.7591 27.7166H79.247C79.2636 27.9605 79.3334 28.1641 79.4565 28.3274C79.582 28.4884 79.7489 28.6103 79.9572 28.6932C80.1679 28.7737 80.4058 28.8139 80.671 28.8139C80.9314 28.8139 81.1575 28.776 81.3493 28.7003C81.5434 28.6245 81.6937 28.5192 81.8002 28.3842C81.9068 28.2493 81.96 28.0942 81.96 27.919C81.96 27.7557 81.9115 27.6184 81.8145 27.5071C81.7198 27.3958 81.5801 27.3011 81.3954 27.223C81.2131 27.1449 80.9894 27.0739 80.7243 27.0099L79.9324 26.8111C79.3192 26.6619 78.835 26.4287 78.4799 26.1115C78.1248 25.7943 77.9484 25.367 77.9508 24.8295C77.9484 24.3892 78.0656 24.0045 78.3024 23.6754C78.5415 23.3464 78.8694 23.0895 79.286 22.9048C79.7027 22.7202 80.1762 22.6278 80.7065 22.6278C81.2463 22.6278 81.7174 22.7202 82.1199 22.9048C82.5247 23.0895 82.8395 23.3464 83.0645 23.6754C83.2894 24.0045 83.4054 24.3857 83.4125 24.8189H81.9387ZM86.9822 30.1065C86.4306 30.1065 85.9536 29.9893 85.5511 29.755C85.151 29.5182 84.8421 29.1892 84.6243 28.7678C84.4065 28.344 84.2976 27.8527 84.2976 27.294C84.2976 26.7306 84.4065 26.2382 84.6243 25.8168C84.8421 25.393 85.151 25.0639 85.5511 24.8295C85.9536 24.5928 86.4306 24.4744 86.9822 24.4744C87.5339 24.4744 88.0097 24.5928 88.4098 24.8295C88.8123 25.0639 89.1224 25.393 89.3402 25.8168C89.558 26.2382 89.6669 26.7306 89.6669 27.294C89.6669 27.8527 89.558 28.344 89.3402 28.7678C89.1224 29.1892 88.8123 29.5182 88.4098 29.755C88.0097 29.9893 87.5339 30.1065 86.9822 30.1065ZM86.9893 28.9347C87.2403 28.9347 87.4498 28.8636 87.6179 28.7216C87.786 28.5772 87.9126 28.3807 87.9979 28.1321C88.0855 27.8835 88.1293 27.6006 88.1293 27.2834C88.1293 26.9661 88.0855 26.6832 87.9979 26.4347C87.9126 26.1861 87.786 25.9896 87.6179 25.8452C87.4498 25.7008 87.2403 25.6286 86.9893 25.6286C86.736 25.6286 86.523 25.7008 86.3501 25.8452C86.1797 25.9896 86.0507 26.1861 85.9631 26.4347C85.8778 26.6832 85.8352 26.9661 85.8352 27.2834C85.8352 27.6006 85.8778 27.8835 85.9631 28.1321C86.0507 28.3807 86.1797 28.5772 86.3501 28.7216C86.523 28.8636 86.736 28.9347 86.9893 28.9347ZM93.1151 30.1065C92.5634 30.1065 92.0864 29.9893 91.6839 29.755C91.2839 29.5182 90.9749 29.1892 90.7571 28.7678C90.5393 28.344 90.4304 27.8527 90.4304 27.294C90.4304 26.7306 90.5393 26.2382 90.7571 25.8168C90.9749 25.393 91.2839 25.0639 91.6839 24.8295C92.0864 24.5928 92.5634 24.4744 93.1151 24.4744C93.6667 24.4744 94.1425 24.5928 94.5426 24.8295C94.9451 25.0639 95.2552 25.393 95.473 25.8168C95.6908 26.2382 95.7997 26.7306 95.7997 27.294C95.7997 27.8527 95.6908 28.344 95.473 28.7678C95.2552 29.1892 94.9451 29.5182 94.5426 29.755C94.1425 29.9893 93.6667 30.1065 93.1151 30.1065ZM93.1222 28.9347C93.3731 28.9347 93.5826 28.8636 93.7507 28.7216C93.9188 28.5772 94.0455 28.3807 94.1307 28.1321C94.2183 27.8835 94.2621 27.6006 94.2621 27.2834C94.2621 26.9661 94.2183 26.6832 94.1307 26.4347C94.0455 26.1861 93.9188 25.9896 93.7507 25.8452C93.5826 25.7008 93.3731 25.6286 93.1222 25.6286C92.8688 25.6286 92.6558 25.7008 92.483 25.8452C92.3125 25.9896 92.1835 26.1861 92.0959 26.4347C92.0107 26.6832 91.968 26.9661 91.968 27.2834C91.968 27.6006 92.0107 27.8835 92.0959 28.1321C92.1835 28.3807 92.3125 28.5772 92.483 28.7216C92.6558 28.8636 92.8688 28.9347 93.1222 28.9347ZM98.2962 26.8466V30H96.7834V24.5455H98.2251V25.5078H98.2891C98.4098 25.1906 98.6122 24.9396 98.8963 24.755C99.1804 24.5679 99.5249 24.4744 99.9297 24.4744C100.308 24.4744 100.639 24.5573 100.92 24.723C101.202 24.8887 101.421 25.1255 101.577 25.4332C101.734 25.7386 101.812 26.1032 101.812 26.527V30H100.299V26.7969C100.301 26.4631 100.216 26.2027 100.043 26.0156C99.8705 25.8262 99.6326 25.7315 99.3295 25.7315C99.1259 25.7315 98.946 25.7753 98.7898 25.8629C98.6359 25.9505 98.5152 26.0784 98.4276 26.2464C98.3423 26.4122 98.2985 26.6122 98.2962 26.8466ZM103.888 30.0923C103.654 30.0923 103.453 30.0095 103.285 29.8438C103.119 29.6757 103.036 29.4744 103.036 29.2401C103.036 29.008 103.119 28.8092 103.285 28.6435C103.453 28.4777 103.654 28.3949 103.888 28.3949C104.116 28.3949 104.314 28.4777 104.485 28.6435C104.655 28.8092 104.741 29.008 104.741 29.2401C104.741 29.3963 104.7 29.5395 104.62 29.6697C104.542 29.7976 104.439 29.9006 104.311 29.9787C104.183 30.0545 104.042 30.0923 103.888 30.0923ZM106.867 30.0923C106.632 30.0923 106.431 30.0095 106.263 29.8438C106.097 29.6757 106.015 29.4744 106.015 29.2401C106.015 29.008 106.097 28.8092 106.263 28.6435C106.431 28.4777 106.632 28.3949 106.867 28.3949C107.094 28.3949 107.293 28.4777 107.463 28.6435C107.634 28.8092 107.719 29.008 107.719 29.2401C107.719 29.3963 107.679 29.5395 107.598 29.6697C107.52 29.7976 107.417 29.9006 107.289 29.9787C107.162 30.0545 107.021 30.0923 106.867 30.0923ZM109.845 30.0923C109.611 30.0923 109.41 30.0095 109.242 29.8438C109.076 29.6757 108.993 29.4744 108.993 29.2401C108.993 29.008 109.076 28.8092 109.242 28.6435C109.41 28.4777 109.611 28.3949 109.845 28.3949C110.073 28.3949 110.271 28.4777 110.442 28.6435C110.612 28.8092 110.698 29.008 110.698 29.2401C110.698 29.3963 110.657 29.5395 110.577 29.6697C110.499 29.7976 110.396 29.9006 110.268 29.9787C110.14 30.0545 109.999 30.0923 109.845 30.0923Z" fill="black"/>
<path d="M37.9893 15H37.174L39.006 9.90909H39.8935L41.7255 15H40.9102L39.4709 10.8338H39.4311L37.9893 15ZM38.1261 13.0064H40.771V13.6527H38.1261V13.0064ZM42.7503 15L41.6267 11.1818H42.3948L43.143 13.9858H43.1803L43.931 11.1818H44.6991L45.4449 13.9734H45.4822L46.2254 11.1818H46.9935L45.8724 15H45.1143L44.3387 12.2433H44.2815L43.5059 15H42.7503ZM48.81 15.0845C48.5681 15.0845 48.3493 15.0398 48.1538 14.9503C47.9582 14.8591 47.8033 14.7274 47.6889 14.555C47.5762 14.3827 47.5199 14.1714 47.5199 13.9212C47.5199 13.7057 47.5613 13.5284 47.6442 13.3892C47.727 13.25 47.8389 13.1398 47.9798 13.0586C48.1206 12.9774 48.2781 12.9161 48.4521 12.8746C48.6261 12.8332 48.8034 12.8017 48.984 12.7802C49.2127 12.7537 49.3983 12.7321 49.5408 12.7156C49.6834 12.6973 49.7869 12.6683 49.8516 12.6286C49.9162 12.5888 49.9485 12.5241 49.9485 12.4347V12.4173C49.9485 12.2002 49.8872 12.032 49.7646 11.9126C49.6436 11.7933 49.4629 11.7337 49.2227 11.7337C48.9724 11.7337 48.7752 11.7892 48.631 11.9002C48.4885 12.0096 48.3899 12.1314 48.3352 12.2656L47.6367 12.1065C47.7196 11.8745 47.8406 11.6873 47.9996 11.5447C48.1604 11.4006 48.3452 11.2962 48.554 11.2315C48.7628 11.1652 48.9824 11.1321 49.2127 11.1321C49.3652 11.1321 49.5268 11.1503 49.6974 11.1868C49.8698 11.2216 50.0305 11.2862 50.1797 11.3807C50.3305 11.4751 50.454 11.6102 50.5501 11.7859C50.6462 11.9599 50.6942 12.1861 50.6942 12.4645V15H49.9684V14.478H49.9386C49.8905 14.5741 49.8184 14.6686 49.7223 14.7614C49.6262 14.8542 49.5027 14.9312 49.3519 14.9925C49.2011 15.0539 49.0205 15.0845 48.81 15.0845ZM48.9716 14.4879C49.1771 14.4879 49.3527 14.4473 49.4986 14.3661C49.6461 14.2849 49.7579 14.1789 49.8342 14.0479C49.9121 13.9154 49.951 13.7737 49.951 13.6229V13.1307C49.9245 13.1572 49.8731 13.1821 49.7969 13.2053C49.7223 13.2268 49.637 13.2459 49.5408 13.2624C49.4447 13.2773 49.3511 13.2914 49.2599 13.3047C49.1688 13.3163 49.0926 13.3262 49.0312 13.3345C48.8871 13.3527 48.7553 13.3834 48.636 13.4265C48.5183 13.4696 48.4239 13.5317 48.3526 13.6129C48.283 13.6925 48.2482 13.7985 48.2482 13.9311C48.2482 14.1151 48.3162 14.2543 48.4521 14.3487C48.5879 14.4415 48.7611 14.4879 48.9716 14.4879ZM51.6842 15V11.1818H52.4275V15H51.6842ZM52.0596 10.5927C51.9303 10.5927 51.8193 10.5496 51.7265 10.4634C51.6353 10.3756 51.5898 10.2712 51.5898 10.1502C51.5898 10.0276 51.6353 9.92318 51.7265 9.837C51.8193 9.74917 51.9303 9.70526 52.0596 9.70526C52.1888 9.70526 52.299 9.74917 52.3902 9.837C52.483 9.92318 52.5294 10.0276 52.5294 10.1502C52.5294 10.2712 52.483 10.3756 52.3902 10.4634C52.299 10.5496 52.1888 10.5927 52.0596 10.5927ZM55.2097 11.1818V11.7784H53.1241V11.1818H55.2097ZM53.6834 10.267H54.4267V13.8789C54.4267 14.0231 54.4482 14.1316 54.4913 14.2045C54.5344 14.2758 54.5899 14.3247 54.6578 14.3512C54.7275 14.3761 54.8029 14.3885 54.8841 14.3885C54.9437 14.3885 54.9959 14.3844 55.0407 14.3761C55.0854 14.3678 55.1202 14.3612 55.1451 14.3562L55.2793 14.9702C55.2362 14.9867 55.1749 15.0033 55.0953 15.0199C55.0158 15.0381 54.9164 15.0481 54.7971 15.0497C54.6015 15.053 54.4192 15.0182 54.2502 14.9453C54.0811 14.8724 53.9444 14.7597 53.84 14.6072C53.7356 14.4548 53.6834 14.2634 53.6834 14.033V10.267ZM56.0319 15V11.1818H56.7751V15H56.0319ZM56.4072 10.5927C56.278 10.5927 56.1669 10.5496 56.0741 10.4634C55.983 10.3756 55.9374 10.2712 55.9374 10.1502C55.9374 10.0276 55.983 9.92318 56.0741 9.837C56.1669 9.74917 56.278 9.70526 56.4072 9.70526C56.5365 9.70526 56.6467 9.74917 56.7378 9.837C56.8306 9.92318 56.877 10.0276 56.877 10.1502C56.877 10.2712 56.8306 10.3756 56.7378 10.4634C56.6467 10.5496 56.5365 10.5927 56.4072 10.5927ZM58.5183 12.733V15H57.775V11.1818H58.4885V11.8033H58.5357C58.6235 11.6011 58.7611 11.4387 58.9483 11.3161C59.1373 11.1934 59.3751 11.1321 59.6618 11.1321C59.9219 11.1321 60.1498 11.1868 60.3453 11.2962C60.5409 11.4039 60.6925 11.5646 60.8002 11.7784C60.908 11.9922 60.9618 12.2565 60.9618 12.5714V15H60.2186V12.6609C60.2186 12.3841 60.1465 12.1679 60.0023 12.0121C59.8581 11.8546 59.6601 11.7759 59.4082 11.7759C59.2359 11.7759 59.0826 11.8132 58.9483 11.8878C58.8158 11.9624 58.7105 12.0717 58.6326 12.2159C58.5564 12.3584 58.5183 12.5308 58.5183 12.733ZM63.5595 16.5114C63.2562 16.5114 62.9952 16.4716 62.7765 16.392C62.5594 16.3125 62.382 16.2073 62.2445 16.0763C62.1069 15.9454 62.0042 15.8021 61.9363 15.6463L62.5751 15.3828C62.6199 15.4557 62.6795 15.5328 62.7541 15.614C62.8303 15.6969 62.9331 15.7673 63.0623 15.8253C63.1932 15.8833 63.3614 15.9123 63.5669 15.9123C63.8487 15.9123 64.0815 15.8435 64.2654 15.706C64.4494 15.5701 64.5414 15.353 64.5414 15.0547V14.304H64.4941C64.4494 14.3852 64.3848 14.4755 64.3002 14.5749C64.2174 14.6744 64.103 14.7605 63.9572 14.8335C63.8114 14.9064 63.6216 14.9428 63.388 14.9428C63.0864 14.9428 62.8146 14.8724 62.5726 14.7315C62.3323 14.589 62.1417 14.3794 62.0009 14.1026C61.8617 13.8242 61.7921 13.482 61.7921 13.076C61.7921 12.67 61.8609 12.322 61.9984 12.032C62.1376 11.742 62.3282 11.5199 62.5701 11.3658C62.8121 11.21 63.0864 11.1321 63.3929 11.1321C63.6299 11.1321 63.8213 11.1719 63.9672 11.2514C64.113 11.3293 64.2265 11.4205 64.3077 11.5249C64.3906 11.6293 64.4544 11.7212 64.4991 11.8008H64.5538V11.1818H65.2821V15.0845C65.2821 15.4126 65.2059 15.6819 65.0534 15.8924C64.901 16.1029 64.6947 16.2586 64.4345 16.3597C64.176 16.4608 63.8843 16.5114 63.5595 16.5114ZM63.552 14.3263C63.7658 14.3263 63.9464 14.2766 64.0939 14.1772C64.2431 14.0761 64.3558 13.9319 64.432 13.7447C64.5099 13.5558 64.5488 13.3295 64.5488 13.0661C64.5488 12.8092 64.5107 12.583 64.4345 12.3874C64.3583 12.1919 64.2464 12.0394 64.0989 11.93C63.9514 11.819 63.7691 11.7635 63.552 11.7635C63.3283 11.7635 63.1419 11.8215 62.9927 11.9375C62.8436 12.0518 62.7309 12.2076 62.6547 12.4048C62.5801 12.602 62.5428 12.8224 62.5428 13.0661C62.5428 13.3163 62.5809 13.5359 62.6571 13.7248C62.7334 13.9137 62.8461 14.0612 62.9952 14.1673C63.146 14.2733 63.3316 14.3263 63.552 14.3263ZM69.2426 15.0845C69.0007 15.0845 68.7819 15.0398 68.5864 14.9503C68.3908 14.8591 68.2359 14.7274 68.1215 14.555C68.0088 14.3827 67.9525 14.1714 67.9525 13.9212C67.9525 13.7057 67.9939 13.5284 68.0768 13.3892C68.1597 13.25 68.2715 13.1398 68.4124 13.0586C68.5532 12.9774 68.7107 12.9161 68.8847 12.8746C69.0587 12.8332 69.236 12.8017 69.4166 12.7802C69.6453 12.7537 69.8309 12.7321 69.9735 12.7156C70.116 12.6973 70.2195 12.6683 70.2842 12.6286C70.3488 12.5888 70.3811 12.5241 70.3811 12.4347V12.4173C70.3811 12.2002 70.3198 12.032 70.1972 11.9126C70.0762 11.7933 69.8956 11.7337 69.6553 11.7337C69.405 11.7337 69.2078 11.7892 69.0637 11.9002C68.9211 12.0096 68.8225 12.1314 68.7678 12.2656L68.0693 12.1065C68.1522 11.8745 68.2732 11.6873 68.4323 11.5447C68.593 11.4006 68.7778 11.2962 68.9866 11.2315C69.1954 11.1652 69.415 11.1321 69.6453 11.1321C69.7978 11.1321 69.9594 11.1503 70.1301 11.1868C70.3024 11.2216 70.4632 11.2862 70.6123 11.3807C70.7631 11.4751 70.8866 11.6102 70.9827 11.7859C71.0788 11.9599 71.1269 12.1861 71.1269 12.4645V15H70.401V14.478H70.3712C70.3231 14.5741 70.251 14.6686 70.1549 14.7614C70.0588 14.8542 69.9353 14.9312 69.7845 14.9925C69.6337 15.0539 69.4531 15.0845 69.2426 15.0845ZM69.4042 14.4879C69.6097 14.4879 69.7854 14.4473 69.9312 14.3661C70.0787 14.2849 70.1905 14.1789 70.2668 14.0479C70.3447 13.9154 70.3836 13.7737 70.3836 13.6229V13.1307C70.3571 13.1572 70.3057 13.1821 70.2295 13.2053C70.1549 13.2268 70.0696 13.2459 69.9735 13.2624C69.8773 13.2773 69.7837 13.2914 69.6926 13.3047C69.6014 13.3163 69.5252 13.3262 69.4639 13.3345C69.3197 13.3527 69.1879 13.3834 69.0686 13.4265C68.951 13.4696 68.8565 13.5317 68.7852 13.6129C68.7156 13.6925 68.6808 13.7985 68.6808 13.9311C68.6808 14.1151 68.7488 14.2543 68.8847 14.3487C69.0206 14.4415 69.1937 14.4879 69.4042 14.4879ZM72.1168 16.4318V11.1818H72.8427V11.8008H72.9048C72.9479 11.7212 73.0101 11.6293 73.0913 11.5249C73.1725 11.4205 73.2852 11.3293 73.4293 11.2514C73.5735 11.1719 73.7641 11.1321 74.0011 11.1321C74.3093 11.1321 74.5844 11.21 74.8263 11.3658C75.0683 11.5215 75.258 11.7461 75.3956 12.0394C75.5348 12.3327 75.6044 12.6857 75.6044 13.0984C75.6044 13.511 75.5356 13.8648 75.3981 14.1598C75.2605 14.4531 75.0716 14.6793 74.8313 14.8384C74.591 14.9959 74.3168 15.0746 74.0085 15.0746C73.7765 15.0746 73.5868 15.0356 73.4393 14.9577C73.2934 14.8799 73.1791 14.7887 73.0962 14.6843C73.0134 14.5799 72.9496 14.4871 72.9048 14.4059H72.8601V16.4318H72.1168ZM72.8452 13.0909C72.8452 13.3594 72.8841 13.5947 72.962 13.7969C73.0399 13.9991 73.1526 14.1573 73.3001 14.2717C73.4476 14.3844 73.6282 14.4407 73.842 14.4407C74.064 14.4407 74.2496 14.3819 74.3988 14.2642C74.5479 14.1449 74.6606 13.9833 74.7369 13.7795C74.8147 13.5756 74.8537 13.3461 74.8537 13.0909C74.8537 12.839 74.8156 12.6128 74.7393 12.4123C74.6648 12.2118 74.5521 12.0535 74.4013 11.9375C74.2521 11.8215 74.0657 11.7635 73.842 11.7635C73.6265 11.7635 73.4442 11.819 73.2951 11.93C73.1476 12.0411 73.0357 12.196 72.9595 12.3949C72.8833 12.5937 72.8452 12.8258 72.8452 13.0909ZM76.4371 16.4318V11.1818H77.163V11.8008H77.2251C77.2682 11.7212 77.3304 11.6293 77.4116 11.5249C77.4928 11.4205 77.6055 11.3293 77.7496 11.2514C77.8938 11.1719 78.0844 11.1321 78.3214 11.1321C78.6296 11.1321 78.9047 11.21 79.1467 11.3658C79.3886 11.5215 79.5784 11.7461 79.7159 12.0394C79.8551 12.3327 79.9247 12.6857 79.9247 13.0984C79.9247 13.511 79.8559 13.8648 79.7184 14.1598C79.5808 14.4531 79.3919 14.6793 79.1516 14.8384C78.9113 14.9959 78.6371 15.0746 78.3288 15.0746C78.0968 15.0746 77.9071 15.0356 77.7596 14.9577C77.6138 14.8799 77.4994 14.7887 77.4165 14.6843C77.3337 14.5799 77.2699 14.4871 77.2251 14.4059H77.1804V16.4318H76.4371ZM77.1655 13.0909C77.1655 13.3594 77.2044 13.5947 77.2823 13.7969C77.3602 13.9991 77.4729 14.1573 77.6204 14.2717C77.7679 14.3844 77.9485 14.4407 78.1623 14.4407C78.3844 14.4407 78.57 14.3819 78.7191 14.2642C78.8683 14.1449 78.9809 13.9833 79.0572 13.7795C79.1351 13.5756 79.174 13.3461 79.174 13.0909C79.174 12.839 79.1359 12.6128 79.0597 12.4123C78.9851 12.2118 78.8724 12.0535 78.7216 11.9375C78.5724 11.8215 78.386 11.7635 78.1623 11.7635C77.9469 11.7635 77.7646 11.819 77.6154 11.93C77.4679 12.0411 77.3561 12.196 77.2798 12.3949C77.2036 12.5937 77.1655 12.8258 77.1655 13.0909ZM80.7575 15V11.1818H81.4759V11.7884H81.5156C81.5852 11.5829 81.7079 11.4213 81.8835 11.3036C82.0608 11.1843 82.2614 11.1246 82.4851 11.1246C82.5315 11.1246 82.5862 11.1263 82.6491 11.1296C82.7138 11.1329 82.7643 11.1371 82.8008 11.142V11.853C82.771 11.8447 82.7179 11.8356 82.6417 11.8256C82.5655 11.814 82.4892 11.8082 82.413 11.8082C82.2373 11.8082 82.0807 11.8455 81.9432 11.9201C81.8073 11.993 81.6996 12.0949 81.62 12.2259C81.5405 12.3551 81.5007 12.5026 81.5007 12.6683V15H80.7575ZM84.9156 15.0771C84.5576 15.0771 84.2452 14.995 83.9784 14.831C83.7116 14.6669 83.5045 14.4374 83.357 14.1424C83.2095 13.8474 83.1357 13.5027 83.1357 13.1083C83.1357 12.7122 83.2095 12.3659 83.357 12.0692C83.5045 11.7726 83.7116 11.5423 83.9784 11.3782C84.2452 11.2141 84.5576 11.1321 84.9156 11.1321C85.2735 11.1321 85.5859 11.2141 85.8527 11.3782C86.1195 11.5423 86.3267 11.7726 86.4742 12.0692C86.6217 12.3659 86.6954 12.7122 86.6954 13.1083C86.6954 13.5027 86.6217 13.8474 86.4742 14.1424C86.3267 14.4374 86.1195 14.6669 85.8527 14.831C85.5859 14.995 85.2735 15.0771 84.9156 15.0771ZM84.9181 14.4531C85.1501 14.4531 85.3423 14.3918 85.4948 14.2692C85.6472 14.1465 85.7599 13.9833 85.8328 13.7795C85.9074 13.5756 85.9447 13.3511 85.9447 13.1058C85.9447 12.8622 85.9074 12.6385 85.8328 12.4347C85.7599 12.2292 85.6472 12.0643 85.4948 11.94C85.3423 11.8157 85.1501 11.7536 84.9181 11.7536C84.6844 11.7536 84.4905 11.8157 84.3364 11.94C84.1839 12.0643 84.0704 12.2292 83.9958 12.4347C83.9229 12.6385 83.8865 12.8622 83.8865 13.1058C83.8865 13.3511 83.9229 13.5756 83.9958 13.7795C84.0704 13.9833 84.1839 14.1465 84.3364 14.2692C84.4905 14.3918 84.6844 14.4531 84.9181 14.4531ZM90.6615 11.1818L89.2769 15H88.4814L87.0944 11.1818H87.8923L88.8593 14.12H88.8991L89.8635 11.1818H90.6615ZM92.3618 15.0845C92.1198 15.0845 91.9011 15.0398 91.7055 14.9503C91.51 14.8591 91.355 14.7274 91.2407 14.555C91.128 14.3827 91.0716 14.1714 91.0716 13.9212C91.0716 13.7057 91.1131 13.5284 91.1959 13.3892C91.2788 13.25 91.3907 13.1398 91.5315 13.0586C91.6724 12.9774 91.8298 12.9161 92.0038 12.8746C92.1778 12.8332 92.3551 12.8017 92.5358 12.7802C92.7645 12.7537 92.9501 12.7321 93.0926 12.7156C93.2351 12.6973 93.3387 12.6683 93.4033 12.6286C93.468 12.5888 93.5003 12.5241 93.5003 12.4347V12.4173C93.5003 12.2002 93.439 12.032 93.3163 11.9126C93.1953 11.7933 93.0147 11.7337 92.7744 11.7337C92.5242 11.7337 92.327 11.7892 92.1828 11.9002C92.0403 12.0096 91.9417 12.1314 91.887 12.2656L91.1885 12.1065C91.2713 11.8745 91.3923 11.6873 91.5514 11.5447C91.7122 11.4006 91.8969 11.2962 92.1057 11.2315C92.3145 11.1652 92.5341 11.1321 92.7645 11.1321C92.9169 11.1321 93.0785 11.1503 93.2492 11.1868C93.4215 11.2216 93.5823 11.2862 93.7314 11.3807C93.8823 11.4751 94.0057 11.6102 94.1018 11.7859C94.1979 11.9599 94.246 12.1861 94.246 12.4645V15H93.5202V14.478H93.4903C93.4423 14.5741 93.3702 14.6686 93.2741 14.7614C93.1779 14.8542 93.0545 14.9312 92.9037 14.9925C92.7529 15.0539 92.5722 15.0845 92.3618 15.0845ZM92.5233 14.4879C92.7288 14.4879 92.9045 14.4473 93.0503 14.3661C93.1978 14.2849 93.3097 14.1789 93.3859 14.0479C93.4638 13.9154 93.5028 13.7737 93.5028 13.6229V13.1307C93.4762 13.1572 93.4249 13.1821 93.3486 13.2053C93.2741 13.2268 93.1887 13.2459 93.0926 13.2624C92.9965 13.2773 92.9028 13.2914 92.8117 13.3047C92.7206 13.3163 92.6443 13.3262 92.583 13.3345C92.4388 13.3527 92.3071 13.3834 92.1878 13.4265C92.0701 13.4696 91.9756 13.5317 91.9044 13.6129C91.8348 13.6925 91.8 13.7985 91.8 13.9311C91.8 14.1151 91.8679 14.2543 92.0038 14.3487C92.1397 14.4415 92.3129 14.4879 92.5233 14.4879ZM95.9792 9.90909V15H95.236V9.90909H95.9792Z" fill="black"/>
</g>
<defs>
<clipPath id="clip0_22_46">
<rect width="119.664" height="40" fill="white"/>
</clipPath>
</defs>
</svg>
